<?xml version="1.0" standalone="no"?>
<!DOCTYPE svg PUBLIC "-//W3C//DTD SVG 20010904//EN"
 "http://www.w3.org/TR/2001/REC-SVG-20010904/DTD/svg10.dtd">
<svg version="1.0" xmlns="http://www.w3.org/2000/svg"
 width="1100.000000pt" height="1100.000000pt" viewBox="0 0 1100.000000 1100.000000"
 preserveAspectRatio="xMidYMid meet">
<metadata>
Created by potrace 1.14, written by Peter Selinger 2001-2017
</metadata>
<g transform="translate(0.000000,1100.000000) scale(0.100000,-0.100000)"
fill="#000000" stroke="none">
<path d="M5413 9818 c-13 -6 -23 -16 -23 -22 0 -7 -4 -6 -8 2 -7 9 -14 7 -33
-10 -14 -13 -29 -23 -33 -23 -5 0 -10 -9 -12 -20 -2 -11 -10 -25 -18 -31 -9
-6 -16 -16 -16 -22 0 -6 -8 -16 -17 -21 -13 -8 -14 -10 -4 -11 11 0 10 -4 -4
-13 -12 -9 -15 -19 -10 -28 7 -12 6 -12 -7 -1 -14 11 -16 10 -14 -12 2 -19 -1
-23 -13 -18 -14 5 -14 4 -1 -14 8 -10 11 -16 6 -12 -12 10 -34 -15 -28 -31 3
-9 1 -12 -6 -7 -11 6 -17 -11 -13 -36 0 -4 -7 -4 -16 -1 -11 4 -14 3 -9 -5 4
-6 -2 -20 -12 -30 -10 -10 -18 -28 -17 -39 1 -15 -3 -19 -13 -15 -10 3 -13 1
-8 -6 4 -7 2 -12 -4 -12 -6 0 -8 -4 -5 -10 3 -5 1 -10 -5 -10 -7 0 -9 -7 -6
-16 3 -8 2 -13 -3 -10 -8 5 -21 -14 -20 -29 0 -3 -7 -13 -16 -21 -8 -9 -13
-20 -9 -25 3 -5 0 -8 -8 -7 -7 2 -12 -3 -10 -9 1 -7 -3 -13 -10 -13 -6 0 -9
-3 -5 -6 3 -3 -5 -18 -19 -33 -14 -14 -27 -37 -31 -51 -3 -14 -11 -29 -18 -35
-6 -5 -13 -14 -14 -20 -2 -5 -8 -9 -14 -7 -6 2 -4 -5 4 -14 8 -10 9 -15 3 -11
-7 4 -17 -5 -24 -23 -7 -18 -17 -27 -24 -23 -6 4 -5 -1 3 -10 12 -16 12 -17
-5 -10 -17 6 -18 5 -4 -12 9 -11 10 -16 3 -11 -8 4 -13 2 -13 -4 0 -6 -4 -9
-9 -5 -6 3 -8 -4 -6 -15 2 -11 0 -20 -5 -20 -4 0 -18 -19 -30 -42 -12 -23 -29
-48 -38 -56 -12 -9 -12 -11 -2 -6 12 7 13 5 3 -8 -7 -8 -9 -19 -5 -24 4 -4 -2
-2 -13 6 -11 8 -17 10 -12 5 4 -4 0 -19 -9 -33 -12 -18 -12 -23 -3 -17 8 3 6
0 -3 -8 -10 -8 -18 -20 -18 -26 0 -7 -5 -9 -12 -5 -8 5 -7 0 2 -11 8 -10 11
-16 5 -13 -11 7 -37 -17 -28 -26 3 -3 -1 -8 -10 -12 -9 -3 -13 -12 -10 -20 3
-8 0 -14 -6 -14 -6 0 -11 -7 -11 -15 0 -8 -4 -15 -10 -15 -5 0 -10 -7 -10 -15
0 -8 -5 -15 -11 -15 -5 0 -8 -4 -5 -9 3 -5 -1 -12 -10 -15 -8 -3 -12 -10 -9
-16 3 -6 -1 -13 -10 -16 -9 -4 -14 -12 -11 -20 3 -7 2 -14 -2 -16 -4 -2 -18
-18 -31 -37 -13 -19 -17 -30 -10 -26 12 8 12 6 0 -8 -7 -9 -17 -14 -22 -11 -5
3 -6 -2 -3 -10 4 -9 0 -18 -9 -22 -9 -3 -13 -12 -10 -20 3 -7 -2 -17 -11 -20
-9 -3 -13 -10 -10 -15 3 -5 -6 -20 -19 -33 -14 -13 -27 -36 -31 -51 -4 -14
-10 -23 -15 -20 -5 2 -12 -2 -15 -11 -4 -10 -2 -13 7 -9 6 4 4 0 -5 -8 -10 -8
-15 -17 -11 -20 3 -4 1 -7 -5 -7 -7 0 -12 -7 -12 -16 0 -8 -5 -12 -10 -9 -6 4
-9 3 -8 -2 4 -16 -14 -53 -23 -48 -8 6 -13 -8 -10 -28 1 -4 -6 -15 -14 -23 -8
-9 -12 -21 -8 -27 4 -7 0 -8 -11 -4 -9 4 -15 3 -11 -2 3 -5 -1 -12 -7 -14 -10
-4 -10 -6 0 -6 10 -1 10 -4 0 -15 -7 -8 -16 -12 -20 -9 -5 2 -8 0 -8 -6 0 -5
6 -12 13 -14 7 -3 5 -6 -5 -6 -16 -1 -23 -12 -19 -33 0 -5 -3 -8 -9 -8 -5 0
-10 -6 -10 -14 0 -8 -8 -17 -17 -20 -14 -6 -15 -9 -4 -15 11 -7 9 -10 -7 -15
-14 -5 -19 -12 -15 -23 4 -11 2 -14 -5 -9 -7 4 -14 -3 -18 -19 -3 -13 -10 -22
-15 -19 -5 3 -9 -2 -9 -11 0 -9 -9 -30 -21 -46 -11 -16 -17 -34 -13 -40 4 -7
3 -9 -3 -6 -5 4 -16 -6 -24 -21 -8 -15 -18 -32 -24 -38 -32 -37 -49 -59 -45
-61 3 -1 -3 -11 -12 -22 -9 -11 -14 -22 -11 -25 4 -3 1 -6 -6 -6 -7 0 -9 -4
-6 -10 3 -5 1 -10 -4 -10 -6 0 -11 -7 -11 -15 0 -9 -7 -18 -15 -21 -8 -4 -13
-10 -10 -14 3 -4 -4 -19 -15 -33 -11 -13 -24 -35 -30 -48 -12 -30 -30 -57 -52
-83 -10 -11 -18 -25 -18 -31 0 -6 -9 -21 -20 -33 -12 -12 -18 -22 -15 -22 7 0
-76 -133 -88 -141 -5 -3 -9 -9 -9 -12 0 -19 -12 -47 -19 -47 -5 0 -17 -18 -26
-40 -10 -22 -21 -40 -25 -40 -5 0 -8 -7 -8 -15 0 -8 -4 -15 -10 -15 -5 0 -10
-6 -10 -14 0 -8 -6 -21 -13 -28 -6 -7 -21 -30 -32 -50 -11 -21 -22 -38 -25
-38 -4 0 -14 -19 -24 -42 -10 -24 -26 -52 -36 -63 -9 -11 -23 -34 -31 -52 -7
-17 -16 -30 -20 -27 -4 2 -10 -9 -14 -26 -4 -16 -10 -30 -14 -30 -3 0 -15 -17
-26 -37 -11 -21 -22 -40 -25 -43 -7 -7 -29 -43 -37 -60 -3 -8 -16 -28 -27 -45
-12 -16 -21 -32 -21 -35 -1 -8 -39 -64 -48 -71 -5 -3 -7 -9 -5 -12 1 -4 -4
-15 -13 -25 -9 -10 -22 -33 -30 -50 -8 -18 -17 -32 -21 -32 -5 0 -8 -6 -8 -13
0 -8 -9 -24 -20 -37 -11 -13 -20 -29 -20 -37 0 -7 -4 -13 -10 -13 -5 0 -10 -6
-10 -14 0 -8 -6 -21 -13 -28 -6 -7 -21 -30 -31 -50 -11 -20 -23 -35 -26 -33
-4 2 -7 -1 -7 -8 0 -12 -71 -137 -83 -147 -4 -3 -13 -20 -21 -37 -8 -18 -16
-33 -20 -33 -3 0 -16 -20 -28 -45 -12 -25 -27 -45 -33 -45 -6 0 -9 -3 -5 -6 3
-4 -5 -23 -18 -43 -14 -19 -25 -39 -25 -44 0 -4 -11 -20 -25 -35 -18 -19 -21
-28 -12 -34 8 -5 9 -8 0 -8 -6 0 -24 -21 -39 -47 -15 -27 -34 -54 -41 -61 -7
-7 -13 -18 -13 -23 0 -6 -14 -30 -30 -55 -17 -24 -29 -44 -26 -44 3 0 -2 -9
-11 -19 -17 -21 -75 -120 -93 -158 -5 -13 -14 -23 -20 -23 -6 0 -8 -4 -5 -10
3 -6 1 -10 -4 -10 -6 0 -11 -5 -11 -11 0 -6 -13 -29 -29 -52 -16 -23 -28 -45
-27 -49 0 -3 -8 -17 -20 -30 -11 -13 -18 -30 -16 -38 3 -8 1 -12 -3 -8 -8 8
-22 -12 -49 -69 -8 -18 -20 -33 -25 -33 -6 0 -10 -3 -9 -8 4 -13 -13 -52 -23
-52 -5 0 -9 -7 -9 -15 0 -8 -5 -15 -11 -15 -5 0 -7 -4 -4 -10 3 -5 2 -10 -3
-10 -5 0 -15 -13 -22 -30 -7 -16 -17 -30 -22 -30 -5 0 -7 -4 -4 -9 3 -5 -1
-14 -9 -21 -8 -7 -13 -16 -10 -20 3 -4 -2 -11 -11 -14 -8 -3 -13 -10 -10 -15
3 -5 -1 -12 -10 -15 -8 -3 -12 -10 -9 -16 3 -5 1 -10 -5 -10 -6 0 -9 -4 -5 -9
3 -5 1 -12 -5 -16 -6 -4 -8 -10 -5 -15 3 -4 -2 -11 -11 -14 -8 -3 -13 -10 -10
-15 3 -5 -1 -11 -9 -15 -8 -3 -15 -15 -15 -26 0 -11 -7 -23 -15 -26 -8 -4 -12
-10 -9 -15 3 -5 0 -9 -6 -9 -6 0 -8 -4 -5 -10 3 -5 2 -10 -3 -10 -5 0 -15 -13
-22 -30 -7 -16 -16 -30 -21 -30 -5 0 -9 -6 -9 -14 0 -7 -7 -19 -15 -26 -8 -7
-12 -16 -9 -21 3 -5 0 -9 -6 -9 -7 0 -10 -7 -6 -15 3 -8 0 -14 -7 -12 -7 1
-11 -4 -9 -10 1 -7 -3 -13 -10 -13 -6 0 -9 -3 -5 -6 3 -4 1 -12 -6 -20 -30
-33 -35 -42 -30 -48 4 -3 1 -6 -6 -6 -7 0 -9 -5 -6 -10 3 -6 -1 -13 -9 -16 -9
-3 -14 -10 -11 -14 3 -5 -5 -19 -17 -31 -13 -12 -17 -18 -9 -14 9 5 12 4 7 -3
-4 -7 -15 -12 -24 -12 -15 0 -15 -2 -2 -10 10 -6 11 -10 3 -10 -7 0 -13 -7
-13 -16 0 -9 -5 -12 -12 -8 -8 5 -8 1 2 -12 8 -10 11 -16 6 -12 -10 8 -36 -14
-29 -24 2 -5 -1 -8 -6 -8 -6 0 -11 -6 -11 -14 0 -7 -7 -19 -15 -26 -8 -7 -12
-16 -9 -21 3 -5 1 -9 -4 -9 -6 0 -15 -14 -21 -31 -6 -17 -15 -28 -20 -24 -6 3
-8 -3 -6 -15 2 -11 0 -18 -4 -15 -7 4 -18 -11 -26 -35 -8 -27 -30 -58 -37 -54
-5 3 -8 2 -7 -3 4 -21 -2 -34 -13 -27 -6 4 -8 3 -4 -4 3 -6 -1 -17 -9 -26 -8
-8 -14 -21 -13 -28 2 -7 -3 -12 -10 -10 -8 1 -11 -2 -7 -8 3 -5 2 -10 -3 -10
-6 0 -9 -8 -8 -17 0 -10 -5 -17 -12 -15 -8 1 -11 -2 -8 -7 4 -5 0 -15 -7 -23
-7 -7 -18 -25 -24 -40 -7 -16 -17 -28 -23 -28 -6 0 -8 -4 -5 -10 3 -5 1 -10
-5 -10 -6 0 -9 -4 -6 -9 3 -5 -1 -14 -10 -21 -8 -7 -13 -19 -10 -27 3 -8 1
-11 -4 -8 -12 7 -31 -35 -22 -49 3 -5 0 -6 -5 -3 -10 6 -18 -3 -22 -28 -2 -5
-9 -14 -17 -18 -8 -5 -12 -12 -9 -17 3 -4 -2 -11 -11 -14 -9 -3 -14 -13 -11
-20 3 -8 -1 -17 -9 -20 -9 -3 -12 -10 -9 -16 3 -5 1 -10 -4 -10 -6 0 -11 -7
-11 -16 0 -9 -5 -12 -12 -8 -8 5 -9 2 -5 -9 4 -10 1 -17 -5 -17 -6 0 -8 -3 -5
-7 4 -3 -2 -13 -13 -20 -11 -8 -18 -18 -15 -22 2 -5 -3 -17 -11 -27 -9 -10
-12 -13 -8 -5 4 9 3 12 -4 7 -6 -4 -9 -13 -5 -21 3 -8 0 -15 -7 -15 -6 0 -8
-5 -5 -10 3 -6 -1 -13 -9 -16 -9 -3 -13 -10 -10 -15 3 -5 0 -9 -6 -9 -6 0 -8
-5 -5 -10 3 -6 2 -10 -3 -10 -5 0 -12 -9 -15 -21 -3 -12 -10 -18 -16 -14 -7 3
-8 0 -5 -9 3 -9 1 -16 -6 -16 -6 0 -8 -4 -5 -10 3 -5 1 -10 -4 -10 -6 0 -10
-3 -9 -7 3 -14 -14 -43 -22 -38 -5 3 -11 -8 -15 -24 -3 -15 -15 -38 -25 -49
-11 -12 -20 -26 -20 -32 0 -5 -5 -10 -11 -10 -5 0 -8 -4 -5 -9 3 -5 -1 -14 -9
-21 -8 -7 -12 -16 -9 -21 3 -5 0 -9 -5 -9 -6 0 -11 -7 -11 -15 0 -8 -4 -15 -9
-15 -5 0 -13 -10 -17 -22 -3 -12 -13 -28 -20 -36 -8 -7 -12 -18 -9 -23 4 -5
-1 -9 -9 -9 -10 0 -13 -6 -10 -15 4 -8 1 -15 -5 -15 -7 0 -17 -13 -22 -30 -6
-17 -14 -30 -18 -30 -4 0 -13 -16 -21 -35 -8 -19 -18 -35 -22 -35 -5 0 -7 -4
-4 -9 3 -5 -1 -12 -10 -15 -8 -3 -13 -10 -10 -15 3 -5 -1 -12 -10 -15 -8 -3
-12 -10 -9 -16 3 -5 1 -10 -5 -10 -6 0 -8 -4 -5 -10 3 -5 1 -10 -5 -10 -6 0
-8 -5 -5 -10 3 -6 -1 -13 -9 -16 -9 -3 -13 -10 -10 -15 3 -5 1 -9 -5 -9 -5 0
-13 -10 -17 -22 -3 -12 -13 -28 -20 -36 -8 -7 -14 -20 -14 -28 0 -8 -4 -14
-10 -14 -5 0 -10 -7 -10 -15 0 -9 -7 -18 -15 -21 -8 -4 -13 -10 -10 -14 3 -5
-2 -15 -10 -23 -8 -9 -15 -20 -15 -26 0 -6 -5 -11 -11 -11 -5 0 -8 -4 -5 -9 3
-5 -1 -14 -9 -21 -8 -7 -13 -16 -10 -20 3 -4 -2 -10 -10 -14 -8 -3 -15 -12
-15 -21 0 -8 -4 -15 -9 -15 -5 0 -12 -7 -15 -16 -4 -10 -2 -13 7 -9 6 4 4 0
-6 -8 -9 -8 -17 -19 -17 -26 0 -6 -5 -11 -11 -11 -5 0 -8 -4 -5 -9 3 -5 -1
-12 -9 -15 -8 -3 -14 -9 -13 -13 1 -4 -5 -19 -14 -33 -9 -14 -18 -34 -20 -45
-2 -11 -7 -23 -12 -26 -4 -4 -3 -17 4 -29 9 -17 9 -21 0 -15 -9 5 -10 1 -5
-16 18 -57 40 -95 70 -121 40 -35 45 -39 45 -32 0 3 11 -1 24 -9 17 -12 26
-13 35 -4 8 8 11 8 11 0 0 -7 21 -10 60 -8 42 2 58 -1 54 -9 -3 -6 2 -2 10 8
9 11 16 15 16 10 0 -5 18 -10 40 -11 27 -1 38 2 34 9 -5 7 -2 8 7 2 21 -13 80
-14 72 0 -5 8 -3 8 8 0 20 -15 61 -16 52 -1 -4 7 1 6 11 -2 15 -13 19 -13 27
0 5 8 9 9 9 2 0 -13 18 -12 39 1 9 6 12 5 8 -1 -4 -7 3 -10 18 -9 14 0 25 5
25 10 0 6 6 2 13 -9 9 -12 16 -14 21 -7 4 6 14 8 23 5 12 -5 14 -3 8 7 -6 10
-4 11 6 4 19 -12 42 -11 51 1 5 6 8 6 8 -1 0 -12 49 -12 68 0 7 4 12 4 12 -1
0 -4 18 -8 40 -9 23 0 37 3 33 9 -4 6 -1 7 8 2 16 -11 91 -11 107 -1 7 4 12 3
12 -3 0 -11 39 -9 58 3 7 4 12 3 12 -3 0 -7 8 -7 25 -1 17 7 25 6 25 -1 0 -7
7 -8 17 -4 10 4 32 7 48 5 17 -1 41 -3 55 -4 14 -1 31 3 39 9 11 8 13 7 7 -3
-7 -11 -4 -12 10 -4 11 5 28 6 39 2 11 -4 28 -3 39 2 10 6 21 6 25 2 8 -12 31
-16 31 -7 0 10 57 9 67 0 3 -4 13 -2 20 5 11 9 17 9 24 -3 6 -9 9 -10 9 -2 0
9 7 10 23 4 14 -6 30 -5 41 1 13 7 21 7 26 -2 4 -7 10 -8 13 -3 7 10 79 9 96
-2 6 -3 11 -2 11 3 0 10 92 8 109 -2 6 -4 11 -3 11 2 0 13 63 10 72 -3 5 -6 8
-6 8 1 0 7 27 9 83 7 45 -3 87 -4 92 -4 69 6 248 4 252 -2 2 -4 10 -4 16 0 17
10 137 10 137 0 0 -5 7 -4 15 3 11 9 18 10 28 1 8 -6 17 -8 21 -4 4 4 159 8
344 8 185 0 342 4 348 8 7 4 17 0 24 -8 9 -11 16 -12 26 -4 7 6 23 8 35 4 15
-5 19 -4 14 5 -5 9 -2 10 11 3 23 -12 114 -11 133 1 10 6 12 5 7 -2 -5 -8 1
-12 14 -12 13 0 19 4 14 12 -4 6 -3 8 3 5 20 -13 104 -17 97 -5 -5 7 -2 8 6 3
18 -11 320 -12 320 -1 0 5 7 3 15 -4 12 -10 15 -10 15 1 0 8 6 6 16 -7 8 -10
12 -13 9 -6 -6 11 9 13 69 10 49 -3 76 0 76 6 0 6 4 5 9 -3 6 -9 11 -10 15 -2
5 8 13 8 27 1 13 -8 19 -7 19 0 0 6 4 8 10 5 14 -9 114 -10 128 -1 7 4 12 3
12 -3 0 -6 11 -6 31 -1 27 8 30 7 25 -8 -6 -16 -5 -16 7 0 9 11 18 14 27 8 9
-6 17 -4 22 3 5 8 8 8 8 1 0 -8 13 -9 40 -4 26 5 41 3 44 -4 3 -8 5 -7 5 1 1
8 10 9 29 4 15 -4 43 -4 62 -1 44 7 72 1 63 -14 -4 -6 1 -5 11 3 14 12 19 12
26 2 5 -9 10 -10 14 -2 5 8 13 8 27 1 10 -6 19 -7 19 -2 0 4 9 8 20 9 12 1 18
-3 14 -9 -5 -7 30 6 42 16 0 1 8 -5 17 -12 8 -7 18 -9 21 -4 2 4 39 8 80 7 42
0 76 2 76 6 0 4 10 5 22 1 16 -4 19 -2 13 9 -6 11 -5 12 6 2 7 -7 21 -13 32
-13 11 0 15 -4 11 -12 -5 -7 -3 -8 6 -3 21 13 100 13 93 1 -4 -6 0 -5 9 2 11
9 18 10 23 2 4 -7 12 -7 25 0 11 6 21 6 24 1 7 -10 25 -9 44 2 7 5 12 3 12 -4
0 -8 3 -9 14 0 18 15 78 20 94 8 9 -7 11 -5 6 8 -6 14 -4 16 6 10 21 -13 74
-13 82 -1 6 8 8 8 8 0 0 -12 56 -12 67 0 3 3 12 1 20 -5 9 -8 17 -8 26 0 8 6
17 8 21 4 11 -12 136 -9 136 2 0 6 3 6 8 0 8 -12 27 -13 37 -3 4 4 15 4 24 0
20 -9 42 -9 58 1 6 4 15 2 19 -4 4 -8 9 -7 15 2 5 8 9 9 9 3 0 -7 15 -10 38
-8 20 2 48 4 62 4 14 0 34 0 45 0 11 0 29 0 40 -1 64 -3 93 -2 114 5 15 5 21
4 17 -2 -5 -9 52 -7 62 3 3 2 13 0 23 -6 11 -5 19 -6 19 -1 0 5 13 9 30 8 16
-1 30 -4 30 -7 0 -4 16 -3 36 1 19 5 48 5 64 0 16 -4 31 -6 34 -3 3 4 34 5 68
4 35 -1 68 -2 73 -2 191 6 305 4 305 -4 0 -7 3 -7 8 0 9 12 112 14 112 2 0 -4
5 -5 11 -2 16 10 80 12 112 4 15 -4 27 -4 27 0 0 9 123 6 139 -3 6 -4 11 -3
11 1 0 5 23 8 50 8 28 0 50 -4 50 -10 0 -7 3 -7 8 0 9 13 145 14 155 0 5 -7 9
-7 15 1 8 12 61 12 80 0 7 -4 12 -3 12 1 0 5 30 8 68 7 37 0 73 4 81 10 11 8
13 8 8 0 -9 -15 95 -14 105 1 5 6 8 5 8 -2 0 -9 17 -12 60 -9 33 2 63 0 66 -5
3 -6 10 -6 17 -1 7 5 27 8 45 6 22 -2 30 1 25 9 -5 9 -3 9 8 1 8 -6 29 -10 47
-8 22 2 30 -1 25 -9 -5 -9 -3 -9 8 -1 8 7 51 10 106 9 58 -1 90 2 86 8 -4 6
-1 7 6 2 22 -13 82 -15 75 -3 -5 7 -2 8 6 3 19 -12 200 -13 193 -2 -4 6 -1 7
7 2 19 -12 84 -12 92 0 5 6 8 5 8 -3 0 -10 5 -10 21 -1 12 6 19 7 15 1 -3 -6
5 -9 19 -8 14 0 25 5 25 9 0 5 6 5 13 0 19 -12 49 -14 42 -3 -4 7 2 7 19 0 14
-5 26 -6 26 -2 0 4 9 8 19 8 11 0 18 -3 15 -7 -2 -4 3 -10 12 -13 10 -4 13 -2
8 6 -5 7 0 9 14 6 12 -3 23 -1 26 6 2 6 5 7 5 1 1 -6 37 -9 93 -7 51 1 98 3
103 3 6 0 22 -2 38 -4 15 -3 27 0 27 7 0 6 5 4 10 -4 7 -11 10 -11 10 -2 0 8
5 10 12 6 19 -12 48 -12 48 0 0 6 5 4 10 -4 5 -8 10 -10 10 -5 0 6 17 10 37
10 21 0 41 -4 45 -10 5 -6 8 -6 8 2 0 8 9 9 30 3 21 -6 30 -5 30 3 0 7 4 6 10
-3 9 -13 10 -13 10 0 0 9 3 11 8 5 4 -5 18 -9 32 -8 14 0 33 1 43 2 12 1 16 5
11 14 -6 8 -3 8 9 -1 9 -8 22 -12 29 -9 7 2 21 0 30 -4 10 -6 19 -5 23 1 5 8
12 7 23 -2 11 -9 14 -9 9 -1 -6 9 2 12 27 11 20 -1 41 6 51 15 9 10 21 17 26
17 14 0 39 26 39 40 0 6 5 8 12 4 8 -5 9 -2 5 9 -4 10 -2 16 6 14 7 -1 11 4 9
12 -1 7 1 18 6 25 12 15 13 106 1 106 -6 0 -7 5 -4 10 4 6 1 17 -5 25 -7 8 -9
15 -4 15 4 0 -1 9 -12 20 -27 27 -44 49 -44 55 1 28 -1 35 -10 30 -9 -5 -12 1
-9 21 0 3 -10 14 -22 25 -12 10 -18 19 -14 19 4 0 2 8 -6 18 -8 9 -21 29 -29
45 -7 15 -17 27 -22 27 -5 0 -6 5 -3 10 3 6 1 10 -5 10 -6 0 -8 4 -5 10 3 5 2
10 -3 10 -5 0 -21 22 -34 50 -14 27 -28 47 -31 43 -4 -3 -7 3 -7 15 0 12 -4
22 -10 22 -5 0 -10 6 -10 14 0 7 -7 19 -15 26 -9 7 -13 15 -11 17 5 5 -4 18
-36 53 -9 10 -14 21 -10 24 3 4 -2 12 -11 19 -9 6 -17 19 -19 27 -2 8 -11 22
-21 32 -13 12 -15 17 -5 21 9 4 7 6 -4 6 -9 1 -20 6 -24 13 -5 7 -3 8 7 3 8
-5 5 1 -5 13 -11 12 -15 22 -11 22 4 0 -2 8 -13 19 -12 10 -19 21 -16 24 4 3
-5 16 -18 29 -14 13 -23 29 -21 36 3 6 0 12 -6 12 -6 0 -11 7 -11 15 0 9 -7
18 -15 21 -8 4 -15 13 -15 20 0 8 -9 24 -20 36 -11 12 -20 29 -20 37 0 9 -7
24 -14 34 -11 14 -15 15 -20 5 -3 -7 -4 -3 -2 10 3 14 -1 22 -11 22 -8 0 -12
4 -8 9 3 5 -2 17 -11 25 -8 9 -12 16 -8 16 4 0 -2 8 -13 17 -11 10 -18 24 -16
31 3 6 0 12 -5 12 -11 0 -48 70 -44 83 1 5 -2 6 -8 2 -9 -6 -35 41 -32 58 1 4
-5 7 -14 7 -8 0 -13 4 -9 9 3 5 -1 16 -9 24 -8 8 -12 17 -9 21 4 3 0 6 -7 6
-7 0 -11 3 -7 6 3 4 1 12 -6 20 -30 33 -35 42 -30 48 4 3 0 6 -7 6 -7 0 -11 3
-7 6 3 4 1 12 -6 20 -30 33 -35 42 -30 48 4 3 1 6 -6 6 -8 0 -11 6 -7 16 3 8
2 12 -4 9 -6 -3 -10 1 -10 10 0 10 -5 13 -12 9 -6 -4 -8 -3 -4 4 3 6 0 17 -8
25 -8 8 -12 17 -9 21 4 3 1 6 -5 6 -7 0 -11 6 -10 13 2 6 -3 11 -11 9 -8 -2
-11 3 -8 13 4 8 2 15 -3 15 -6 0 -10 9 -10 21 0 11 -4 17 -10 14 -5 -3 -10 1
-10 9 0 9 -5 16 -11 16 -5 0 -8 4 -4 9 3 5 -6 22 -20 37 -14 15 -25 31 -25 36
0 5 -7 16 -15 24 -8 8 -11 22 -8 31 4 11 3 14 -5 9 -7 -4 -15 0 -19 11 -4 10
-14 24 -22 31 -9 8 -10 11 -3 7 18 -9 15 5 -6 24 -27 25 -50 56 -34 47 11 -7
12 -4 3 13 -7 11 -16 21 -21 21 -6 0 -10 7 -10 15 0 8 -5 15 -11 15 -5 0 -7 5
-4 10 3 6 -2 10 -11 10 -10 0 -14 3 -11 6 6 7 -21 63 -35 74 -3 3 -8 12 -10
20 -2 8 -12 23 -23 33 -11 10 -14 16 -5 12 9 -4 7 0 -4 9 -10 8 -15 20 -11 26
4 6 1 9 -7 8 -7 -2 -12 3 -10 10 1 6 -2 12 -8 12 -5 0 -10 7 -10 15 0 8 -4 15
-9 15 -5 0 -17 18 -27 40 -10 22 -22 40 -27 40 -4 0 -6 4 -3 9 3 5 -1 12 -10
15 -8 3 -13 10 -10 15 4 5 1 11 -4 13 -6 2 -12 13 -13 26 0 12 -9 25 -19 28
-10 3 -16 9 -13 14 3 5 -2 15 -10 23 -8 9 -15 20 -15 26 0 6 -5 11 -11 11 -5
0 -7 5 -4 10 3 6 2 10 -4 10 -6 0 -13 11 -17 25 -3 14 -11 22 -17 18 -6 -4 -8
0 -4 10 3 10 2 17 -4 17 -6 0 -7 5 -3 12 4 6 3 8 -3 5 -6 -4 -17 1 -24 10 -10
12 -10 14 -1 9 20 -12 14 3 -13 32 -14 15 -23 32 -21 38 2 6 -8 27 -23 45 -16
19 -31 44 -35 57 -4 12 -12 22 -17 22 -6 0 -7 4 -4 10 3 6 1 10 -5 10 -6 0 -8
5 -5 10 3 6 2 10 -4 10 -6 0 -13 11 -17 25 -3 14 -10 23 -14 20 -4 -3 -13 9
-20 25 -7 17 -17 30 -22 30 -5 0 -7 4 -3 9 3 5 -1 15 -8 23 -7 7 -24 33 -38
58 -13 25 -32 54 -41 64 -10 11 -18 25 -18 32 0 7 -3 14 -7 16 -5 2 -19 23
-32 48 -14 25 -27 47 -31 50 -3 3 -21 32 -40 65 -19 33 -37 62 -40 65 -7 5
-60 92 -88 146 -7 13 -17 24 -22 24 -5 0 -7 8 -3 18 3 9 2 14 -2 9 -5 -4 -16
7 -24 25 -19 39 -52 91 -64 99 -5 3 -8 8 -6 10 2 4 -25 50 -69 119 -9 14 -16
28 -15 31 1 4 -7 15 -17 24 -11 10 -20 24 -20 32 0 7 -5 13 -12 13 -6 0 -9 3
-5 6 3 4 1 12 -6 20 -22 25 -32 40 -35 54 -2 8 -8 17 -13 18 -5 2 -9 10 -9 18
0 8 -4 14 -10 14 -5 0 -10 9 -10 21 0 11 -4 18 -8 15 -4 -2 -14 10 -22 27 -7
18 -20 38 -27 45 -7 7 -13 20 -13 28 0 8 -3 14 -8 14 -4 0 -16 17 -27 38 -11
20 -22 39 -25 42 -14 13 -40 60 -33 60 5 0 0 5 -10 11 -9 6 -15 14 -12 20 4 5
1 9 -4 9 -6 0 -11 7 -11 15 0 8 -4 15 -10 15 -5 0 -10 6 -10 13 0 8 -9 22 -20
32 -11 10 -20 23 -20 30 0 6 -11 26 -25 45 -13 18 -22 37 -19 41 3 5 1 9 -3 9
-13 0 -43 56 -35 65 4 5 1 5 -6 1 -8 -5 -16 3 -23 23 -6 17 -15 31 -19 31 -4
0 -11 11 -14 25 -4 16 -11 23 -18 19 -6 -4 -8 -3 -5 3 4 6 -2 22 -13 36 -11
14 -20 29 -20 34 0 5 -8 18 -18 29 -9 10 -23 30 -29 44 -15 30 -36 63 -44 70
-3 3 -12 19 -19 37 -8 17 -18 29 -22 27 -4 -3 -8 4 -8 15 0 12 -4 21 -10 21
-5 0 -10 6 -10 13 0 7 -9 23 -20 35 -11 12 -20 28 -20 37 0 8 -4 15 -10 15 -5
0 -10 6 -10 14 0 8 -3 16 -7 18 -10 4 -73 106 -73 117 0 5 -7 14 -15 21 -8 7
-12 16 -9 21 3 5 1 9 -5 9 -6 0 -20 19 -32 41 -11 23 -29 51 -40 62 -10 11
-16 24 -13 29 3 4 0 8 -7 8 -7 0 -10 3 -6 6 3 3 -3 15 -14 27 -10 11 -19 27
-19 34 0 7 -4 13 -10 13 -5 0 -10 6 -10 13 0 7 -9 23 -20 35 -12 12 -17 22
-13 22 4 0 3 4 -2 8 -6 4 -19 24 -30 45 -11 20 -23 37 -27 37 -5 0 -8 6 -8 14
0 7 -7 19 -15 26 -8 7 -12 16 -9 21 3 5 0 9 -5 9 -6 0 -11 4 -11 10 0 5 -11
26 -25 46 -14 20 -22 41 -18 47 3 6 1 7 -5 3 -8 -4 -16 3 -22 19 -6 16 -14 23
-22 19 -6 -4 -8 -3 -4 4 3 6 1 14 -5 17 -5 4 -8 14 -5 22 3 8 2 12 -2 10 -11
-7 -29 17 -26 36 1 9 -3 15 -9 14 -7 -1 -12 8 -11 20 0 15 -5 20 -18 18 -10
-2 -16 0 -13 5 7 11 -11 47 -32 68 -7 8 -11 17 -8 22 3 5 -4 12 -16 15 -15 5
-18 10 -9 15 8 5 7 9 -5 14 -9 3 -13 10 -10 16 3 5 1 10 -4 10 -6 0 -11 7 -11
15 0 7 -8 19 -17 24 -10 6 -14 11 -9 11 6 0 1 7 -10 16 -10 8 -12 12 -4 8 11
-6 10 -2 -3 13 -9 11 -14 23 -10 27 5 4 3 7 -2 6 -22 -5 -27 1 -14 17 8 9 9
14 3 10 -13 -8 -37 16 -27 26 3 4 -2 7 -13 8 -11 0 -14 3 -6 6 9 3 7 10 -9 24
-12 10 -19 19 -15 19 4 0 0 7 -8 16 -9 8 -16 24 -16 34 0 10 -9 21 -19 25 -12
4 -18 12 -14 21 3 9 -1 14 -13 14 -16 0 -17 2 -4 10 13 9 7 14 -12 11 -4 0 -5
6 -2 14 4 8 1 15 -5 15 -6 0 -11 5 -11 11 0 6 -7 17 -16 26 -8 9 -13 22 -10
30 3 8 2 12 -2 10 -7 -5 -33 18 -32 28 1 22 -1 25 -12 19 -7 -5 -9 -2 -5 9 3
9 0 18 -9 21 -8 3 -14 12 -14 21 0 8 -4 15 -10 15 -5 0 -10 7 -10 16 0 9 -10
25 -22 35 -11 11 -16 19 -9 19 9 0 8 4 -1 14 -7 8 -16 12 -21 9 -4 -2 -7 -1
-6 4 3 18 -1 34 -9 29 -4 -2 -9 7 -10 22 -1 15 -11 34 -22 43 -10 9 -20 23
-22 30 -3 13 -7 19 -35 53 -6 7 -9 17 -6 20 4 3 1 6 -5 6 -7 0 -12 7 -12 16 0
9 -5 12 -12 8 -6 -4 -8 -3 -5 4 8 12 -2 44 -12 37 -4 -2 -14 11 -21 30 -7 19
-17 32 -22 29 -4 -3 -8 4 -8 15 0 12 -4 21 -10 21 -5 0 -10 7 -10 15 0 8 -4
15 -10 15 -5 0 -10 9 -10 20 0 11 -7 23 -15 26 -8 4 -12 10 -9 15 3 5 0 9 -6
9 -6 0 -8 5 -5 10 3 6 -1 10 -9 10 -9 0 -16 5 -16 11 0 5 6 7 13 4 6 -4 -1 6
-18 20 -16 15 -23 24 -15 19 10 -5 8 0 -4 14 -11 12 -15 22 -11 22 5 0 1 6
-10 13 -10 8 -15 19 -11 25 4 7 2 12 -4 12 -6 0 -18 7 -26 15 -9 9 -11 15 -4
15 6 0 8 5 5 10 -4 6 -11 8 -16 4 -5 -3 -9 -2 -8 3 3 12 -12 46 -29 66 -8 9
-12 17 -8 17 4 0 0 7 -8 16 -9 8 -13 21 -9 27 4 8 2 8 -9 -1 -13 -10 -15 -9
-14 10 0 12 -9 33 -21 46 -13 14 -21 27 -19 31 6 9 -21 31 -29 23 -4 -4 -5 3
-1 14 4 15 2 24 -9 28 -8 3 -15 12 -15 19 0 8 -7 20 -15 27 -9 7 -13 15 -11
17 3 3 -6 16 -20 30 -13 13 -22 29 -19 34 4 5 1 9 -4 9 -6 0 -11 7 -11 16 0 9
-5 12 -12 8 -8 -5 -7 0 2 11 8 10 11 16 5 13 -5 -3 -16 0 -23 8 -7 8 -10 14
-7 14 3 0 -3 10 -14 22 -11 11 -18 25 -15 30 5 7 -10 12 -28 9 -7 -1 -12 14
-9 31 0 3 -7 5 -17 4 -9 -2 -23 3 -30 11 -8 7 -23 11 -33 8 -10 -4 -19 -2 -19
3 0 11 -25 10 -36 -1 -11 -11 -26 -8 -19 3 7 12 7 12 -22 -2z m-453 -658 c-6
-11 -13 -20 -16 -20 -2 0 0 9 6 20 6 11 13 20 16 20 2 0 0 -9 -6 -20z m1358
-545 c-3 -3 -9 2 -12 12 -6 14 -5 15 5 6 7 -7 10 -15 7 -18z"/>
</g>
</svg>
